# xmcd
#
# Track frame offsets:
#	150
#	15465
#	31675
#	49500
#	63837
#	82046
#	99001
#	114815
#	131501
#	148207
#	164952
#	182726
#	200705
#	214478
#
# Disc length: 3109 seconds
#
# Revision: 1
# Processed by: cddbd v1.5.2PL0 Copyright (c) Steve Scherf et al.
# Submitted via: audiograbber 1.83.01
#
DISCID=c00c230e
DTITLE=Roger Cicero - nicht Artgerecht
DYEAR=2009
DGENRE=Swing
TTITLE0=Roger Cicero - Nicht artgerecht
TTITLE1=Roger Cicero - Ich bin dabei
TTITLE2=Roger Cicero - Boutique
TTITLE3=Roger Cicero - Hinterm Steuer
TTITLE4=Roger Cicero - Spontis zeugen Banker
TTITLE5=Roger Cicero - Und sonst wo
TTITLE6=Roger Cicero - Wenn ich dich los wär
TTITLE7=Roger Cicero - Tabu
TTITLE8=Roger Cicero - seine Ruhe
TTITLE9=Roger Cicero - Zu schön um nett zu sein
TTITLE10=Roger Cicero - Ohne Worte
TTITLE11=Roger Cicero - Das ist nicht das wonach es aussieht
TTITLE12=Roger Cicero - Internet Single Börse
TTITLE13=Roger Cicero - Für nen Kerl
EXTD=
EXTT0=
EXTT1=
EXTT2=
EXTT3=
EXTT4=
EXTT5=
EXTT6=
EXTT7=
EXTT8=
EXTT9=
EXTT10=
EXTT11=
EXTT12=
EXTT13=
PLAYORDER=
